<svg xmlns="http://www.w3.org/2000/svg" version="1.1" xmlns:xlink="http://www.w3.org/1999/xlink" width="512" height="512" x="0" y="0" viewBox="0 0 512 512.001" style="enable-background:new 0 0 512 512" xml:space="preserve" class=""><g><path fill="#bdbdbd" d="m476.297 38.266-2.563-2.567c-47.601-47.597-124.777-47.597-172.379 0l-92.203 92.203c-47.601 47.602-47.601 124.782 0 172.38l2.563 2.566c47.601 47.597 124.781 47.597 172.379 0l92.203-92.203c47.601-47.602 47.601-124.778 0-172.38zM429.414 166.32l-89.64 89.64c-11.184 11.185-26.051 17.345-41.868 17.345s-30.683-6.16-41.867-17.344c-23.086-23.086-23.086-60.649 0-83.734l89.64-89.641c11.184-11.184 26.051-17.344 41.868-17.344s30.683 6.16 41.867 17.344c23.086 23.086 23.086 60.648 0 83.734zm0 0" opacity="1" data-original="#7e9bcc" class=""></path><path fill="#bdbdbd" d="m429.414 166.32-89.64 89.64c-11.184 11.185-26.051 17.345-41.868 17.345s-30.683-6.16-41.867-17.344l-45.605 45.601 1.28 1.286c47.602 47.597 124.782 47.597 172.38 0l92.203-92.203c47.601-47.602 47.601-124.782 0-172.38l-1.281-1.28-45.602 45.6c23.086 23.087 23.086 60.65 0 83.735zm0 0" opacity="1" data-original="#5877a6" class=""></path><path fill="#d4d4d4" d="M261.73 333.07a59.197 59.197 0 0 1-5.77 6.707l-89.636 89.637c-11.187 11.184-26.054 17.344-41.87 17.344-15.813 0-30.684-6.16-41.868-17.344-11.184-11.184-17.344-26.05-17.344-41.867s6.16-30.684 17.344-41.867l89.64-89.64c11.184-11.185 26.051-17.345 41.868-17.345s30.687 6.16 41.867 17.344l.078-.078c11.184 11.184 26.055 17.344 41.867 17.344 12.836 0 25.047-4.059 35.168-11.563-5.668-18.304-15.738-35.535-30.226-50.027l-2.563-2.563c-47.601-47.597-124.781-47.597-172.379 0l-92.203 92.203c-47.601 47.602-47.601 124.778 0 172.38l2.563 2.562c47.601 47.601 124.777 47.601 172.379 0l92.203-92.2c14.691-14.69 24.84-32.202 30.46-50.788a122.39 122.39 0 0 1-71.578-.239zm0 0" opacity="1" data-original="#aecef2" class=""></path><g fill="#91b6e3"><path d="M256.04 255.96c11.183 11.185 26.05 17.345 41.866 17.345 12.836 0 25.047-4.059 35.168-11.563-5.668-18.305-15.738-35.535-30.23-50.027l-1.278-1.278zM261.73 333.07a59.197 59.197 0 0 1-5.77 6.707l-89.636 89.637c-11.187 11.184-26.054 17.344-41.87 17.344-15.813 0-30.684-6.16-41.868-17.344L36.984 475.02l1.282 1.28c47.601 47.602 124.777 47.602 172.379 0l92.203-92.202c14.691-14.692 24.84-32.2 30.46-50.785a122.423 122.423 0 0 1-71.578-.243zm0 0" fill="#d4d4d4" opacity="1" data-original="#91b6e3" class=""></path></g></g></svg>