<svg xmlns="http://www.w3.org/2000/svg" version="1.1" xmlns:xlink="http://www.w3.org/1999/xlink" width="512" height="512" x="0" y="0" viewBox="0 0 512 512" style="enable-background:new 0 0 512 512" xml:space="preserve" class=""><g transform="matrix(1.0999999999999996,0,0,1.0999999999999996,-25.59999847412098,-25.600001144409077)"><path fill="#dadada" d="M431.3 98.8v258.9c0 9.8-7.9 17.7-17.7 17.7h-58.4V180.5c.1-.3.1-.6.1-.8 0-1.5-.6-2.8-1.7-3.7l-47.4-47.4-.1-.1c-.8-.9-2-1.5-3.3-1.7H166.6V68.5c0-9.8 7.9-17.7 17.7-17.7h199.2V92c0 3.7 3 6.8 6.8 6.8z" opacity="1" data-original="#484848" class=""></path><path fill="#dadada" d="M424.4 89h-31.1V57.8z" opacity="1" data-original="#484848" class=""></path><g fill="#7b7b7b"><path d="M338.5 174.8h-31.1v-31.2z" fill="#dadada" opacity="1" data-original="#7b7b7b" class=""></path><path d="M345.5 381.3v62.2c0 9.8-7.9 17.7-17.7 17.7H98.4c-9.8 0-17.7-7.9-17.7-17.7V154.3c0-9.8 7.9-17.7 17.7-17.7v.1h199.2v41.1c0 3.7 3 6.8 6.8 6.8h41.1v194.7c-.1.3-.1.6-.1 1 0 .3 0 .7.1 1zm-43.3-115.4c0-2.7-2.2-4.9-4.9-4.9H128.7c-2.7 0-4.9 2.2-4.9 4.9s2.2 4.9 4.9 4.9h168.6c2.7 0 4.8-2.2 4.9-4.9zm0 56.4c0-2.7-2.2-4.9-4.9-4.9H128.7c-2.7 0-4.9 2.2-4.9 4.9s2.2 4.9 4.9 4.9h168.6c2.7 0 4.8-2.2 4.9-4.9zm0 56.3c0-2.7-2.2-4.9-4.9-4.9H128.7c-2.7 0-4.9 2.2-4.9 4.9s2.2 4.9 4.9 4.9h168.6c2.7 0 4.8-2.2 4.9-4.9z" fill="#dadada" opacity="1" data-original="#7b7b7b" class=""></path></g></g></svg>