<svg xmlns="http://www.w3.org/2000/svg" version="1.1" xmlns:xlink="http://www.w3.org/1999/xlink" width="512" height="512" x="0" y="0" viewBox="0 0 24 24" style="enable-background:new 0 0 512 512" xml:space="preserve" class=""><g transform="matrix(0.9999999999999991,0,0,0.9999999999999991,5.329070518200751e-15,5.329070518200751e-15)"><path d="M22 12v8a2 2 0 0 1-2 2h-8a2 2 0 0 1-2-2v-8a2 2 0 0 1 2-2h8a2 2 0 0 1 2 2zM8 6a2 2 0 0 0-2 2v6a2 2 0 0 0 2 2h.5v-4A3.504 3.504 0 0 1 12 8.5h4V8a2 2 0 0 0-2-2zm-4 4h.5V8A3.504 3.504 0 0 1 8 4.5h2V4a2 2 0 0 0-2-2H4a2 2 0 0 0-2 2v4a2 2 0 0 0 2 2z" fill="#bdbdbd" opacity="1" data-original="#000000" class=""></path></g></svg>