<svg xmlns="http://www.w3.org/2000/svg" version="1.1" xmlns:xlink="http://www.w3.org/1999/xlink" width="512" height="512" x="0" y="0" viewBox="0 0 64 64" style="enable-background:new 0 0 512 512" xml:space="preserve" class=""><g transform="matrix(0.9500000000000001,0,0,0.9500000000000001,1.6000000715255709,1.5999999999999979)"><g fill="#0071bc"><path d="M4.28 40.3v10.63c0 2.29 8.38 5.48 22.02 5.48q.975 0 1.92-.03V44.56q-.96.03-1.92.03c-9.01 0-18.11-1.46-22.02-4.29zm3.6 9.15a1.54 1.54 0 1 1 1.54-1.54 1.54 1.54 0 0 1-1.54 1.54zm4.61 1.3a1.54 1.54 0 1 1 1.54-1.54 1.547 1.547 0 0 1-1.54 1.54zm4.6.75a1.54 1.54 0 1 1 1.54-1.54 1.54 1.54 0 0 1-1.54 1.54zM4.28 26.48v10.63c0 2.29 8.38 5.48 22.02 5.48q.975 0 1.92-.03V30.75q-.96.03-1.92.03c-9.01 0-18.11-1.47-22.02-4.3zm3.6 9.16a1.54 1.54 0 1 1 1.54-1.54 1.54 1.54 0 0 1-1.54 1.54zm4.61 1.29a1.54 1.54 0 1 1 1.54-1.54 1.54 1.54 0 0 1-1.54 1.54zm4.6.76a1.54 1.54 0 1 1 1.54-1.54 1.54 1.54 0 0 1-1.54 1.54zM48.07 24a1.2 1.2 0 0 0 .25-.7V12.67c-3.91 2.83-13.01 4.3-22.02 4.3S8.19 15.5 4.28 12.67V23.3c0 2.29 8.38 5.48 22.02 5.48q.975 0 1.92-.03V27a3.009 3.009 0 0 1 3-3zM7.88 21.82a1.54 1.54 0 1 1 1.54-1.54 1.54 1.54 0 0 1-1.54 1.54zm4.61 1.3a1.54 1.54 0 1 1 1.54-1.54 1.54 1.54 0 0 1-1.54 1.54zm4.6.75a1.54 1.54 0 1 1 1.54-1.54 1.54 1.54 0 0 1-1.54 1.54z" fill="#d4d4d4" opacity="1" data-original="#0071bc" class=""></path><path d="M26.3 14.97c13.65 0 22.02-3.19 22.02-5.48C48.32 7.19 39.95 4 26.3 4 12.66 4 4.28 7.19 4.28 9.49c0 2.29 8.38 5.48 22.02 5.48zM30.22 35h13.75v7H30.22zM30.22 44h13.75v7H30.22zM30.22 59a1 1 0 0 0 1 1h12.75v-7H30.22zM45.97 60h12.75a1 1 0 0 0 1-1v-6H45.97zM45.97 44h13.75v7H45.97zM45.97 35h13.75v7H45.97zM58.72 26h-27.5a1 1 0 0 0-1 1v6h29.5v-6a1 1 0 0 0-1-1z" fill="#d4d4d4" opacity="1" data-original="#0071bc" class=""></path></g></g></svg>