<svg xmlns="http://www.w3.org/2000/svg" version="1.1" xmlns:xlink="http://www.w3.org/1999/xlink" width="512" height="512" x="0" y="0" viewBox="0 0 24 24" style="enable-background:new 0 0 512 512" xml:space="preserve" class=""><g transform="matrix(1.1000000000000005,0,0,1.1000000000000005,-1.2149999618530352,-1.2049999475479218)"><path d="M9.4 2.2h5.5v1.3H9.4zM6.1 20.4c0 .8.7 1.5 1.5 1.5h9.2c.8 0 1.4-.7 1.4-1.5V7.8H6.1zm8.8-10c0-.2.2-.4.4-.4.3 0 .5.2.5.4v8.8c0 .3-.2.5-.5.5-.2 0-.4-.2-.4-.5zm-3.2 0c0-.2.2-.4.5-.4s.5.2.5.4v8.8c0 .3-.2.5-.5.5s-.5-.2-.5-.5zm-3.2 0c0-.2.2-.4.5-.4s.5.2.5.4v8.8c0 .3-.2.5-.5.5s-.5-.2-.5-.5zM15.4 4.5H5v2.4H19.3V4.5z" fill="#999999" opacity="1" data-original="#000000" class=""></path></g></svg>