<svg xmlns="http://www.w3.org/2000/svg" version="1.1" xmlns:xlink="http://www.w3.org/1999/xlink" width="512" height="512" x="0" y="0" viewBox="0 0 512 512" style="enable-background:new 0 0 512 512" xml:space="preserve" class=""><g transform="matrix(0.9,0,0,0.9,25.599999999999994,25.60009307861327)"><path d="M24.374 221.144c-4.526-3.618-10.722-4.307-15.878-1.802A15.019 15.019 0 0 0 0 232.863v240a15.02 15.02 0 0 0 8.496 13.521 15.03 15.03 0 0 0 15.878-1.802l150-120a15.018 15.018 0 0 0 0-23.438zM503.504 219.342c-5.244-2.476-11.353-1.816-15.879 1.802l-150 120a15.017 15.017 0 0 0-.001 23.437l150 120a15.037 15.037 0 0 0 15.879 1.802 15.017 15.017 0 0 0 8.496-13.521v-240a15.016 15.016 0 0 0-8.495-13.52zM256 217.863c-8.291 0-15 6.709-15 15v240c0 8.291 6.709 15 15 15s15-6.709 15-15v-240c0-8.292-6.709-15-15-15zM497 67.863c-8.291 0-15 6.709-15 15v24.998c-62.311-53.553-143.509-83.723-226-83.723S92.311 54.309 30 107.862V82.863c0-8.291-6.709-15-15-15s-15 6.709-15 15v60c2.402 14.419 12.91 15 15 15h60c8.291 0 15-6.709 15-15s-6.709-15-15-15H52.932C109.508 80.189 180.949 54.137 256 54.137s146.492 26.052 203.068 73.726H437c-8.291 0-15 6.709-15 15s6.709 15 15 15h60c8.373 0 15-7.354 15-15v-60c0-8.292-6.709-15-15-15z" fill="#989898" opacity="1" data-original="#000000" class=""></path></g></svg>