<svg id="Layer_1" enable-background="new 0 0 512 512" height="512" viewBox="0 0 512 512" width="512" xmlns="http://www.w3.org/2000/svg"><path d="m331.981 194.759v-64.334c0-20.174-7.937-39.226-22.348-53.645-14.414-14.423-33.462-22.365-53.633-22.365-20.172 0-39.224 7.942-53.646 22.363-14.42 14.421-22.362 33.473-22.362 53.646v64.334h-42.41v-64.334c0-65.296 53.123-118.418 118.419-118.418s118.419 53.122 118.419 118.418v64.334h-42.439z" fill="#eaf2ff"/><path d="m103.383 499.993c-15.17 0-27.512-12.342-27.512-27.512v-240.208c0-15.17 12.342-27.511 27.512-27.511h305.234c15.17 0 27.512 12.341 27.512 27.511v240.208c0 15.17-12.342 27.512-27.512 27.512zm152.617-223.455c-25.891 0-46.954 21.063-46.954 46.955 0 18.475 10.874 35.282 27.702 42.819l1.183.529v43.306c0 9.964 8.106 18.07 18.069 18.07s18.069-8.106 18.069-18.07v-43.306l1.183-.529c16.828-7.537 27.702-24.345 27.702-42.819 0-25.891-21.063-46.955-46.954-46.955z" fill="#fca92a"/><path d="m256 418.214c-4.448 0-8.066-3.618-8.066-8.066v-46.8c0-2.168-1.384-4.078-3.444-4.753-15.217-4.986-25.441-19.093-25.441-35.102 0-20.375 16.576-36.951 36.951-36.951s36.951 16.576 36.951 36.951c0 16.009-10.224 30.115-25.44 35.102-2.061.675-3.444 2.585-3.444 4.753v46.8c-.001 4.448-3.619 8.066-8.067 8.066z" fill="#1e3445"/><path d="m256 274.538c-26.994 0-48.955 21.961-48.955 48.955 0 19.473 11.415 36.82 28.885 44.645v42.01c0 11.066 9.003 20.07 20.069 20.07s20.069-9.004 20.069-20.07v-42.01c17.47-7.824 28.885-25.172 28.885-44.645.001-26.994-21.959-48.955-48.953-48.955zm10.887 82.156c-2.876.942-4.821 3.627-4.821 6.653v46.8c0 3.346-2.721 6.066-6.066 6.066s-6.066-2.721-6.066-6.066v-46.8c0-3.026-1.945-5.711-4.821-6.653-14.393-4.717-24.064-18.06-24.064-33.201 0-19.272 15.679-34.951 34.952-34.951 19.272 0 34.951 15.679 34.951 34.951-.001 15.142-9.671 28.485-24.065 33.201zm141.73-163.935h-22.195v-62.334c0-71.915-58.507-130.422-130.422-130.422s-130.422 58.507-130.422 130.422v62.334h-22.196c-21.789 0-39.515 17.727-39.515 39.515v240.208c0 21.789 17.726 39.516 39.515 39.516h305.235c21.789 0 39.515-17.727 39.515-39.516v-240.209c0-21.788-17.726-39.514-39.515-39.514zm-269.036-62.334c0-64.193 52.226-116.418 116.419-116.418s116.419 52.225 116.419 116.418v62.334h-38.438v-62.334c0-20.708-8.145-40.262-22.934-55.059-14.792-14.8-34.341-22.951-55.047-22.951-20.708 0-40.261 8.15-55.061 22.949-14.799 14.799-22.949 34.354-22.949 55.061v62.334h-38.41v-62.334zm180.397 0v62.334h-127.984v-62.334c0-35.293 28.713-64.006 64.006-64.006 35.278 0 63.978 28.713 63.978 64.006zm114.151 342.056c0 14.067-11.445 25.512-25.512 25.512h-305.234c-14.067 0-25.512-11.444-25.512-25.512v-240.208c0-14.066 11.445-25.511 25.512-25.511h305.235c14.067 0 25.512 11.444 25.512 25.511v240.208z"/></svg>