<svg xmlns="http://www.w3.org/2000/svg" version="1.1" xmlns:xlink="http://www.w3.org/1999/xlink" width="512" height="512" x="0" y="0" viewBox="0 0 32 32" style="enable-background:new 0 0 512 512" xml:space="preserve" class=""><g transform="matrix(6.123233995736766e-17,-1,1,6.123233995736766e-17,0,32)"><g data-name="33-Flip"><path d="M25 2H7a1 1 0 0 0-.92.62 1 1 0 0 0 .21 1.09l9 9a1 1 0 0 0 1.42 0l9-9a1 1 0 0 0 .21-1.09A1 1 0 0 0 25 2zM16.71 19.29a1 1 0 0 0-1.42 0l-9 9a1 1 0 0 0-.21 1.09A1 1 0 0 0 7 30h18a1 1 0 0 0 .92-.62 1 1 0 0 0-.21-1.09zM29 15h-2a1 1 0 0 0 0 2h2a1 1 0 0 0 0-2zM23 17a1 1 0 0 0 0-2h-2a1 1 0 0 0 0 2zM17 17a1 1 0 0 0 0-2h-2a1 1 0 0 0 0 2zM11 17a1 1 0 0 0 0-2H9a1 1 0 0 0 0 2zM5 15H3a1 1 0 0 0 0 2h2a1 1 0 0 0 0-2z" fill="#dadada" opacity="1" data-original="#000000" class=""></path></g></g></svg>