<svg xmlns="http://www.w3.org/2000/svg" version="1.1" xmlns:xlink="http://www.w3.org/1999/xlink" width="512" height="512" x="0" y="0" viewBox="0 0 450 450" style="enable-background:new 0 0 512 512" xml:space="preserve" class=""><g><path fill="#ffd454" d="M225 285.9c-59.4 0-115.5-12.2-157.9-34.3-26.9-14-46.3-31-57.1-49.6v89.3c0 26.7 21.9 52.2 61.6 71.6 40.9 20 95.4 31 153.4 31 37.8 0 74.1-4.7 106.1-13.5V271.8c-32.3 9.2-68.5 14.1-106.1 14.1z" opacity="1" data-original="#193e80" class=""></path><path fill="#f0824d" d="M440 201.9v89.3c0 26.7-21.9 52.2-61.6 71.6-11.4 5.6-23.8 10.5-37.1 14.6V268.7c14.9-4.8 28.9-10.5 41.6-17.1 26.8-14.1 46.2-31 57.1-49.7z" opacity="1" data-original="#03aadf" class=""></path><path fill="#f0824d" d="M439.8 171c-2.5 26.7-24.1 52-61.6 71.6-12.4 6.5-26.1 12.1-40.8 16.7l-99-88.3z" opacity="1" data-original="#03aadf" class=""></path><path fill="#ffd454" d="M220.2 164.1c.8-2 2.6-3.3 4.8-3.3h214.8c-2.5-26.7-24.1-52-61.6-71.6-41-21.3-95.4-33.1-153.2-33.1S112.8 67.9 71.8 89.2C32 110.1 10 137.3 10 165.9s22 55.8 61.8 76.7c40.9 21.4 95.3 33.1 153.1 33.1 35.8 0 70.2-4.5 100.9-13l-104.3-93c-1.5-1.4-2-3.6-1.3-5.6z" opacity="1" data-original="#193e80" class=""></path></g></svg>