<svg xmlns="http://www.w3.org/2000/svg" version="1.1" xmlns:xlink="http://www.w3.org/1999/xlink" width="512" height="512" x="0" y="0" viewBox="0 0 492 492" style="enable-background:new 0 0 512 512" xml:space="preserve" class=""><g transform="matrix(1.1,0,0,1.1,-24.626500511169468,-24.674000549316418)"><path fill="#787676" d="m355.4 400.04.62 2.79c-32.16 9.31-69.69 14.65-109.76 14.65-119.29 0-216-47.34-216-105.73V188.73c0 62.09 97.03 112.73 216 112.73 39.74 0 77.03-5.65 109.07-15.49l.07.06z" opacity="1" data-original="#e40048" class=""></path><path fill="#787676" d="M462.26 188.73v123.02c0 38.77-42.65 72.68-106.24 91.08l-.62-2.79V286.03l-.07-.06c63.9-19.62 106.93-55.89 106.93-97.24z" opacity="1" data-original="#e0c33e" class=""></path><path fill="#787676" d="M462.26 188.73h-216l109.07 97.24c-32.04 9.84-69.33 15.49-109.07 15.49-118.97 0-216-50.64-216-112.73S127.29 76 246.26 76s216 50.64 216 112.73z" opacity="1" data-original="#fe3377" class=""></path><path fill="#787676" d="M246.26 188.73h216c0 41.35-43.03 77.62-106.93 97.24z" opacity="1" data-original="#fedd46" class=""></path><path d="M246.26 422.48c-58.44 0-113.47-11.18-154.93-31.48-42.6-20.86-66.07-49-66.07-79.26 0-2.76 2.24-5 5-5s5 2.24 5 5c0 26.23 21.47 51.19 60.46 70.28 40.13 19.64 93.59 30.46 150.54 30.46s110.41-10.82 150.54-30.46c38.99-19.09 60.46-44.04 60.46-70.28 0-2.76 2.24-5 5-5s5 2.24 5 5c0 30.25-23.46 58.4-66.07 79.26-41.46 20.3-96.49 31.48-154.93 31.48zM246.26 306.46c-58.33 0-113.35-11.95-154.93-33.65-42.61-22.24-66.07-52.1-66.07-84.08s23.47-61.85 66.07-84.08C132.91 82.95 187.93 71 246.26 71s113.35 11.95 154.93 33.65c42.61 22.24 66.07 52.1 66.07 84.08s-23.46 61.85-66.07 84.08c-41.58 21.7-96.6 33.65-154.93 33.65zm0-225.46c-56.75 0-110.13 11.55-150.3 32.51-39.14 20.43-60.7 47.14-60.7 75.22s21.56 54.79 60.7 75.22c40.17 20.97 93.55 32.51 150.3 32.51s110.12-11.55 150.3-32.51c39.14-20.43 60.7-47.14 60.7-75.22s-21.56-54.79-60.7-75.22C356.38 92.54 303.01 81 246.26 81z" fill="#000000" opacity="1" data-original="#000000" class=""></path><path d="M30.26 316.75c-2.76 0-5-2.24-5-5V188.73c0-2.76 2.24-5 5-5s5 2.24 5 5v123.02c0 2.76-2.24 5-5 5zM462.26 316.75c-2.76 0-5-2.24-5-5V188.73c0-2.76 2.24-5 5-5s5 2.24 5 5v123.02c0 2.76-2.24 5-5 5z" fill="#000000" opacity="1" data-original="#000000" class=""></path><path d="M355.4 405.04c-2.76 0-5-2.24-5-5V288.27l-107.46-95.81c-1.55-1.38-2.08-3.57-1.34-5.51s2.6-3.22 4.67-3.22h216c2.76 0 5 2.24 5 5s-2.24 5-5 5H259.39l99.34 88.57c1.06.95 1.67 2.31 1.67 3.73v114c0 2.77-2.24 5.01-5 5.01zM246.26 369.61h-.21c-5.73-.24-140.73-6.52-180.77-62.15-1.61-2.24-1.1-5.37 1.14-6.98s5.37-1.1 6.98 1.14c37.23 51.73 171.72 57.95 173.07 58 2.76.12 4.9 2.45 4.79 5.21a5.005 5.005 0 0 1-5 4.78zM100.02 193.73c-2.76 0-5-2.24-5-5 0-22.34 16.17-43.08 45.52-58.4 28.32-14.78 65.87-22.92 105.72-22.92 2.76 0 5 2.24 5 5s-2.24 5-5 5c-38.27 0-74.17 7.74-101.09 21.79-25.89 13.51-40.15 31.1-40.15 49.53 0 2.76-2.23 5-5 5z" fill="#000000" opacity="1" data-original="#000000" class=""></path></g></svg>