<svg xmlns="http://www.w3.org/2000/svg" version="1.1" xmlns:xlink="http://www.w3.org/1999/xlink" width="512" height="512" x="0" y="0" viewBox="0 0 512 512" style="enable-background:new 0 0 512 512" xml:space="preserve" class=""><g transform="matrix(1.0999999999999994,0,0,1.0999999999999994,-25.599999999999852,-25.600001144409077)"><path fill="#bdbdbd" d="M419.2 200.1h-27v-27z" opacity="1" data-original="#7b7b7b" class=""></path><path fill="#bdbdbd" d="M357 101v55.3H201.2c-14.1 0-25.5 11.4-25.5 25.5v233.5h-71.5c-10.1 0-18.3-8.2-18.3-18.3V101.1c0-10.1 8.2-18.3 18.3-18.3h37.6v.1c.1 6.8 5.6 12.2 12.3 12.2h134.7c6.8 0 12.3-5.5 12.3-12.4h37.6c10.1 0 18.3 8.2 18.3 18.3z" opacity="1" data-original="#484848" class=""></path><path fill="#bdbdbd" d="M291.2 77.8v5.1c0 1.3-1.1 2.4-2.4 2.4H154.1c-1.3 0-2.4-1.1-2.5-2.6h-.1v-3.8c.1-.3.1-.7.1-1s0-.7-.1-1v-7.6L203 50.8h36.7l51.5 18.6z" opacity="1" data-original="#484848" class=""></path><path fill="#bdbdbd" d="M426.1 209.9v235.6c0 8.6-7 15.7-15.7 15.7H201.2c-8.6 0-15.7-7-15.7-15.7V181.8c0-8.6 7-15.7 15.7-15.7h181.2v37.2c0 3.6 2.9 6.6 6.6 6.6zm-38.6 73.6c0-2.7-2.2-4.9-4.9-4.9H228.8c-2.7 0-4.9 2.2-4.9 4.9s2.2 4.9 4.9 4.9h153.8c2.7 0 4.9-2.2 4.9-4.9zm0 51.5c0-2.7-2.2-4.9-4.9-4.9H228.8c-2.7 0-4.9 2.2-4.9 4.9s2.2 4.9 4.9 4.9h153.8c2.7 0 4.9-2.2 4.9-4.9zm0 51.3c0-2.7-2.2-4.9-4.9-4.9H228.8c-2.7 0-4.9 2.2-4.9 4.9s2.2 4.9 4.9 4.9h153.8c2.7 0 4.9-2.2 4.9-4.9z" opacity="1" data-original="#7b7b7b" class=""></path></g></svg>