<svg xmlns="http://www.w3.org/2000/svg" version="1.1" xmlns:xlink="http://www.w3.org/1999/xlink" width="512" height="512" x="0" y="0" viewBox="0 0 100 100" style="enable-background:new 0 0 512 512" xml:space="preserve" class=""><g transform="matrix(0.9400000000000003,0,0,0.9400000000000003,2.9990451049804534,2.9999999999999787)"><path d="M39 97.5c-5.8 0-11.6-2.2-16-6.6-7.2-7.2-8.7-18.4-3.7-27.3 1.2-2.1 3.8-2.8 5.9-1.6s2.8 3.8 1.6 5.9c-3.1 5.5-2.2 12.4 2.3 16.9 5.5 5.5 14.4 5.5 19.8 0l16.2-16.2c2.6-2.6 4.1-6.1 4.1-9.7v-.2c0-3.4-1.2-6.7-3.4-9.2-.2-.3-.5-.5-.7-.7l-.6-.6-.2-.2c-3.4-2.9-8-4-12.3-3-2.3.5-4.4 1.6-6.1 3.2-1.8 1.6-4.5 1.4-6.1-.3-1.6-1.8-1.4-4.5.3-6.1 2.8-2.5 6.2-4.3 9.9-5.1 7.1-1.7 14.6.2 20 5l.1.1c.4.3.7.7 1.1 1 .4.4.8.8 1.1 1.2 3.5 4 5.5 9.3 5.5 14.8v.4c-.1 5.9-2.4 11.5-6.6 15.7L55 90.9c-4.4 4.4-10.2 6.6-16 6.6z" fill="#d4d4d4" opacity="1" data-original="#000000" class=""></path><path d="M44.8 64c-5.3 0-10.6-1.9-14.9-5.6-.3-.3-.7-.7-1.1-1-4.4-4.4-6.7-10.1-6.6-16.3.1-5.9 2.4-11.5 6.6-15.7L45 9.1C53.8.3 68.2.3 77 9.1c4.3 4.3 6.6 10 6.6 16 0 3.9-1 7.8-3 11.2-1.2 2.1-3.8 2.8-5.9 1.6s-2.8-3.8-1.6-5.9 1.8-4.5 1.8-6.9c0-3.7-1.5-7.3-4.1-9.9-5.5-5.5-14.4-5.5-19.8 0L34.9 31.5c-2.6 2.6-4.1 6.1-4.1 9.7-.1 3.8 1.4 7.4 4.1 10.1l.6.6c5.4 4.7 13.3 4.7 18.6 0 1.8-1.6 4.5-1.4 6.1.4s1.4 4.5-.4 6.1c-4.2 3.7-9.6 5.6-15 5.6z" fill="#d4d4d4" opacity="1" data-original="#000000" class=""></path></g></svg>