<svg xmlns="http://www.w3.org/2000/svg" version="1.1" xmlns:xlink="http://www.w3.org/1999/xlink" width="512" height="512" x="0" y="0" viewBox="0 0 512 512" style="enable-background:new 0 0 512 512" xml:space="preserve" class=""><g transform="matrix(0.9999999999999998,0,0,0.9999999999999998,0,-1.7053025658242404e-13)"><path d="M253.8 82c-21.8 34-38.9 73.9-51 118.5-8.3 30.9-13.9 62.4-16.7 94.2 23.2 2.7 46.6 4.1 69.9 4.1 51.5 0 101.4-6.4 148.2-19.1 39.7-10.7 75.6-25.5 107-44C502.6 126.2 425 35.9 321.8 8.6c-24.7 17-47.8 41.8-68 73.4zM107.8 279.7c12.8 3.4 25.8 6.4 39 9C158.3 166.5 204.6 62 269.4.3 265 .1 260.5 0 256 0 121.4 0 11.1 103.8.8 235.8c31.4 18.4 67.3 33.2 107 43.9zM143.9 348.8c0-6.7.1-13.4.3-20.1-52.8-9.7-101.2-26-143-47.4 9.6 96.8 72.9 177.7 159.7 212.5-11.4-47.5-17.1-96.2-17-145zM256 338.6c-24.1 0-48.2-1.3-72.2-4.1-.1 4.7-.2 9.5-.2 14.3 0 51.5 6.4 101.4 19.1 148.3.9 3.4 1.9 6.7 2.8 10 16.6 3.3 33.5 5 50.4 5 132.8 0 242-101.2 254.8-230.7-69.7 35.7-158.3 57.2-254.7 57.2z" fill="#bdbdbd" opacity="1" data-original="#000000" class=""></path></g></svg>