<svg id="Artboard_30" height="512" viewBox="0 0 64 64" width="512" xmlns="http://www.w3.org/2000/svg" data-name="Artboard 30"><path d="m42 35v-17a10 10 0 0 0 -10-10 10 10 0 0 0 -10 10v3a3 3 0 0 1 -3 3 3 3 0 0 1 -3-3v-3a16 16 0 0 1 16-16 16 16 0 0 1 16 16v17z" fill="#ccced5"/><path d="m32 2a16 16 0 0 0 -16 16v2.5a2.5 2.5 0 0 0 2.5-2.5 13.5 13.5 0 0 1 27 0v9a2.5 2.5 0 0 0 2.5 2.5v-11.5a16 16 0 0 0 -16-16z" fill="#fff" opacity=".5"/><rect fill="#80828b" height="30" rx="4" width="40" x="12" y="32"/><path d="m48 32h-31v15.429a11.57 11.57 0 0 0 11.571 11.571h23.288a3.977 3.977 0 0 0 .141-1v-22a4 4 0 0 0 -4-4z" fill="#aaadb9"/><path d="m30 46.464v6.536a2 2 0 0 0 2 2 2 2 0 0 0 2-2v-6.536a4 4 0 1 0 -4 0z" fill="#606268"/><path d="m32 53v-6.536a3.991 3.991 0 0 1 1-7.324 3.993 3.993 0 0 0 -3 7.324v6.536a1.988 1.988 0 0 0 3 1.723 1.994 1.994 0 0 1 -1-1.723z" fill="#484a4e"/><path d="m16 31a5.006 5.006 0 0 0 -5 5v22a5.006 5.006 0 0 0 5 5h32a5.006 5.006 0 0 0 5-5v-22a5.009 5.009 0 0 0 -4-4.9v-13.1a17 17 0 0 0 -34 0v3a4 4 0 0 0 8 0v-3a9 9 0 1 1 18 0v13zm35 5v22a3 3 0 0 1 -3 3h-32a3 3 0 0 1 -3-3v-22a3 3 0 0 1 3-3h32a3 3 0 0 1 3 3zm-11.222-25.778a11 11 0 0 0 -18.778 7.778v3a2 2 0 0 1 -4 0v-3a15 15 0 0 1 30 0v13h-4v-13a10.926 10.926 0 0 0 -3.222-7.778z"/><path d="m32 38a5 5 0 0 0 -3 9v6a3 3 0 0 0 6 0v-6a5 5 0 0 0 -3-9zm1.5 7.6a1 1 0 0 0 -.5.866v6.534a1 1 0 0 1 -2 0v-6.537a1 1 0 0 0 -.5-.864 3 3 0 1 1 3 0z"/></svg>